<svg xmlns="http://www.w3.org/2000/svg" viewBox="0 0 340 632" width="340" height="632"><rect width="100%" height="100%" fill="#fff"/><rect x="10" y="10" width="100" height="100" fill="#fff" stroke="#191c19" stroke-width="2"/><circle cx="60" cy="60" r="23.4" fill="#191c19" stroke="#191c19" stroke-width="3"/><rect x="120" y="10" width="100" height="100" fill="#fff" stroke="#191c19" stroke-width="2"/><circle cx="147" cy="60" r="17.1" fill="#ffffff" stroke="#191c19" stroke-width="3"/><circle cx="193" cy="60" r="17.1" fill="#ffffff" stroke="#191c19" stroke-width="3"/><rect x="230" y="10" width="100" height="100" fill="#fff" stroke="#191c19" stroke-width="2"/><circle cx="249" cy="60" r="12.2" fill="#9aa09b" stroke="#191c19" stroke-width="3"/><circle cx="280" cy="60" r="12.2" fill="#9aa09b" stroke="#191c19" stroke-width="3"/><circle cx="311" cy="60" r="12.2" fill="#9aa09b" stroke="#191c19" stroke-width="3"/><rect x="10" y="120" width="100" height="100" fill="#fff" stroke="#191c19" stroke-width="2"/><polygon points="60.0,144.0 86.0,170.0 60.0,196.0 34.0,170.0" fill="#ffffff" stroke="#191c19" stroke-width="3"/><rect x="120" y="120" width="100" height="100" fill="#fff" stroke="#191c19" stroke-width="2"/><polygon points="147.0,151.0 166.0,170.0 147.0,189.0 128.0,170.0" fill="#9aa09b" stroke="#191c19" stroke-width="3"/><polygon points="193.0,151.0 212.0,170.0 193.0,189.0 174.0,170.0" fill="#9aa09b" stroke="#191c19" stroke-width="3"/><rect x="230" y="120" width="100" height="100" fill="#fff" stroke="#191c19" stroke-width="2"/><polygon points="249.0,156.5 262.5,170.0 249.0,183.5 235.5,170.0" fill="#191c19" stroke="#191c19" stroke-width="3"/><polygon points="280.0,156.5 293.5,170.0 280.0,183.5 266.5,170.0" fill="#191c19" stroke="#191c19" stroke-width="3"/><polygon points="311.0,156.5 324.5,170.0 311.0,183.5 297.5,170.0" fill="#191c19" stroke="#191c19" stroke-width="3"/><rect x="10" y="230" width="100" height="100" fill="#fff" stroke="#191c19" stroke-width="2"/><polygon points="60.0,254.0 84.7,272.0 75.3,301.0 44.7,301.0 35.3,272.0" fill="#9aa09b" stroke="#191c19" stroke-width="3"/><rect x="120" y="230" width="100" height="100" fill="#fff" stroke="#191c19" stroke-width="2"/><polygon points="147.0,261.0 165.1,274.1 158.2,295.4 135.8,295.4 128.9,274.1" fill="#191c19" stroke="#191c19" stroke-width="3"/><polygon points="193.0,261.0 211.1,274.1 204.2,295.4 181.8,295.4 174.9,274.1" fill="#191c19" stroke="#191c19" stroke-width="3"/><rect x="230" y="230" width="100" height="100" fill="#fff" stroke="#191c19" stroke-width="2"/><text x="280" y="296" font-size="46" font-family="sans-serif" font-weight="700" text-anchor="middle" fill="#191c19">?</text><line x1="10" y1="346" x2="330" y2="346" stroke="#b9bfb6" stroke-width="1.5"/><rect x="10" y="366" width="100" height="100" fill="#fff" stroke="#191c19" stroke-width="2"/><polygon points="29.0,402.5 41.8,411.8 36.9,426.9 21.1,426.9 16.2,411.8" fill="#ffffff" stroke="#191c19" stroke-width="3"/><polygon points="60.0,402.5 72.8,411.8 67.9,426.9 52.1,426.9 47.2,411.8" fill="#ffffff" stroke="#191c19" stroke-width="3"/><polygon points="91.0,402.5 103.8,411.8 98.9,426.9 83.1,426.9 78.2,411.8" fill="#ffffff" stroke="#191c19" stroke-width="3"/><text x="60" y="487" font-size="17" font-family="sans-serif" font-weight="700" text-anchor="middle" fill="#191c19">A</text><rect x="120" y="366" width="100" height="100" fill="#fff" stroke="#191c19" stroke-width="2"/><circle cx="139" cy="416" r="12.2" fill="#9aa09b" stroke="#191c19" stroke-width="3"/><circle cx="170" cy="416" r="12.2" fill="#9aa09b" stroke="#191c19" stroke-width="3"/><circle cx="201" cy="416" r="12.2" fill="#9aa09b" stroke="#191c19" stroke-width="3"/><text x="170" y="487" font-size="17" font-family="sans-serif" font-weight="700" text-anchor="middle" fill="#191c19">B</text><rect x="230" y="366" width="100" height="100" fill="#fff" stroke="#191c19" stroke-width="2"/><polygon points="249.0,402.5 261.8,411.8 256.9,426.9 241.1,426.9 236.2,411.8" fill="#191c19" stroke="#191c19" stroke-width="3"/><polygon points="280.0,402.5 292.8,411.8 287.9,426.9 272.1,426.9 267.2,411.8" fill="#191c19" stroke="#191c19" stroke-width="3"/><polygon points="311.0,402.5 323.8,411.8 318.9,426.9 303.1,426.9 298.2,411.8" fill="#191c19" stroke="#191c19" stroke-width="3"/><text x="280" y="487" font-size="17" font-family="sans-serif" font-weight="700" text-anchor="middle" fill="#191c19">C</text><rect x="10" y="494" width="100" height="100" fill="#fff" stroke="#191c19" stroke-width="2"/><polygon points="60.0,518.0 86.0,544.0 60.0,570.0 34.0,544.0" fill="#ffffff" stroke="#191c19" stroke-width="3"/><text x="60" y="615" font-size="17" font-family="sans-serif" font-weight="700" text-anchor="middle" fill="#191c19">D</text><rect x="120" y="494" width="100" height="100" fill="#fff" stroke="#191c19" stroke-width="2"/><polygon points="139.0,530.5 151.8,539.8 146.9,554.9 131.1,554.9 126.2,539.8" fill="#9aa09b" stroke="#191c19" stroke-width="3"/><polygon points="170.0,530.5 182.8,539.8 177.9,554.9 162.1,554.9 157.2,539.8" fill="#9aa09b" stroke="#191c19" stroke-width="3"/><polygon points="201.0,530.5 213.8,539.8 208.9,554.9 193.1,554.9 188.2,539.8" fill="#9aa09b" stroke="#191c19" stroke-width="3"/><text x="170" y="615" font-size="17" font-family="sans-serif" font-weight="700" text-anchor="middle" fill="#191c19">E</text><rect x="230" y="494" width="100" height="100" fill="#fff" stroke="#191c19" stroke-width="2"/><circle cx="280" cy="544" r="23.4" fill="#191c19" stroke="#191c19" stroke-width="3"/><text x="280" y="615" font-size="17" font-family="sans-serif" font-weight="700" text-anchor="middle" fill="#191c19">F</text></svg>
