<svg xmlns="http://www.w3.org/2000/svg" viewBox="0 0 340 632" width="340" height="632"><rect width="100%" height="100%" fill="#fff"/><rect x="10" y="10" width="100" height="100" fill="#fff" stroke="#191c19" stroke-width="2"/><polygon points="60.0,34.0 82.5,73.0 37.5,73.0" fill="#9aa09b" stroke="#191c19" stroke-width="3"/><rect x="120" y="10" width="100" height="100" fill="#fff" stroke="#191c19" stroke-width="2"/><circle cx="147" cy="60" r="17.1" fill="#191c19" stroke="#191c19" stroke-width="3"/><circle cx="193" cy="60" r="17.1" fill="#191c19" stroke="#191c19" stroke-width="3"/><rect x="230" y="10" width="100" height="100" fill="#fff" stroke="#191c19" stroke-width="2"/><rect x="238.5" y="49.5" width="21.1" height="21.1" fill="#ffffff" stroke="#191c19" stroke-width="3"/><rect x="269.5" y="49.5" width="21.1" height="21.1" fill="#ffffff" stroke="#191c19" stroke-width="3"/><rect x="300.5" y="49.5" width="21.1" height="21.1" fill="#ffffff" stroke="#191c19" stroke-width="3"/><rect x="10" y="120" width="100" height="100" fill="#fff" stroke="#191c19" stroke-width="2"/><circle cx="60" cy="170" r="23.4" fill="#ffffff" stroke="#191c19" stroke-width="3"/><rect x="120" y="120" width="100" height="100" fill="#fff" stroke="#191c19" stroke-width="2"/><rect x="132.2" y="155.2" width="29.6" height="29.6" fill="#9aa09b" stroke="#191c19" stroke-width="3"/><rect x="178.2" y="155.2" width="29.6" height="29.6" fill="#9aa09b" stroke="#191c19" stroke-width="3"/><rect x="230" y="120" width="100" height="100" fill="#fff" stroke="#191c19" stroke-width="2"/><polygon points="249.0,156.5 260.7,176.8 237.3,176.8" fill="#191c19" stroke="#191c19" stroke-width="3"/><polygon points="280.0,156.5 291.7,176.8 268.3,176.8" fill="#191c19" stroke="#191c19" stroke-width="3"/><polygon points="311.0,156.5 322.7,176.8 299.3,176.8" fill="#191c19" stroke="#191c19" stroke-width="3"/><rect x="10" y="230" width="100" height="100" fill="#fff" stroke="#191c19" stroke-width="2"/><rect x="39.7" y="259.7" width="40.6" height="40.6" fill="#191c19" stroke="#191c19" stroke-width="3"/><rect x="120" y="230" width="100" height="100" fill="#fff" stroke="#191c19" stroke-width="2"/><polygon points="147.0,261.0 163.5,289.5 130.5,289.5" fill="#ffffff" stroke="#191c19" stroke-width="3"/><polygon points="193.0,261.0 209.5,289.5 176.5,289.5" fill="#ffffff" stroke="#191c19" stroke-width="3"/><rect x="230" y="230" width="100" height="100" fill="#fff" stroke="#191c19" stroke-width="2"/><text x="280" y="296" font-size="46" font-family="sans-serif" font-weight="700" text-anchor="middle" fill="#191c19">?</text><line x1="10" y1="346" x2="330" y2="346" stroke="#b9bfb6" stroke-width="1.5"/><rect x="10" y="366" width="100" height="100" fill="#fff" stroke="#191c19" stroke-width="2"/><rect x="18.5" y="405.5" width="21.1" height="21.1" fill="#9aa09b" stroke="#191c19" stroke-width="3"/><rect x="49.5" y="405.5" width="21.1" height="21.1" fill="#9aa09b" stroke="#191c19" stroke-width="3"/><rect x="80.5" y="405.5" width="21.1" height="21.1" fill="#9aa09b" stroke="#191c19" stroke-width="3"/><text x="60" y="487" font-size="17" font-family="sans-serif" font-weight="700" text-anchor="middle" fill="#191c19">A</text><rect x="120" y="366" width="100" height="100" fill="#fff" stroke="#191c19" stroke-width="2"/><polygon points="147.0,397.0 166.0,416.0 147.0,435.0 128.0,416.0" fill="#9aa09b" stroke="#191c19" stroke-width="3"/><polygon points="193.0,397.0 212.0,416.0 193.0,435.0 174.0,416.0" fill="#9aa09b" stroke="#191c19" stroke-width="3"/><text x="170" y="487" font-size="17" font-family="sans-serif" font-weight="700" text-anchor="middle" fill="#191c19">B</text><rect x="230" y="366" width="100" height="100" fill="#fff" stroke="#191c19" stroke-width="2"/><polygon points="249.0,402.5 262.5,416.0 249.0,429.5 235.5,416.0" fill="#191c19" stroke="#191c19" stroke-width="3"/><polygon points="280.0,402.5 293.5,416.0 280.0,429.5 266.5,416.0" fill="#191c19" stroke="#191c19" stroke-width="3"/><polygon points="311.0,402.5 324.5,416.0 311.0,429.5 297.5,416.0" fill="#191c19" stroke="#191c19" stroke-width="3"/><text x="280" y="487" font-size="17" font-family="sans-serif" font-weight="700" text-anchor="middle" fill="#191c19">C</text><rect x="10" y="494" width="100" height="100" fill="#fff" stroke="#191c19" stroke-width="2"/><rect x="18.5" y="533.5" width="21.1" height="21.1" fill="#ffffff" stroke="#191c19" stroke-width="3"/><rect x="49.5" y="533.5" width="21.1" height="21.1" fill="#ffffff" stroke="#191c19" stroke-width="3"/><rect x="80.5" y="533.5" width="21.1" height="21.1" fill="#ffffff" stroke="#191c19" stroke-width="3"/><text x="60" y="615" font-size="17" font-family="sans-serif" font-weight="700" text-anchor="middle" fill="#191c19">D</text><rect x="120" y="494" width="100" height="100" fill="#fff" stroke="#191c19" stroke-width="2"/><circle cx="147" cy="544" r="17.1" fill="#9aa09b" stroke="#191c19" stroke-width="3"/><circle cx="193" cy="544" r="17.1" fill="#9aa09b" stroke="#191c19" stroke-width="3"/><text x="170" y="615" font-size="17" font-family="sans-serif" font-weight="700" text-anchor="middle" fill="#191c19">E</text><rect x="230" y="494" width="100" height="100" fill="#fff" stroke="#191c19" stroke-width="2"/><circle cx="249" cy="544" r="12.2" fill="#9aa09b" stroke="#191c19" stroke-width="3"/><circle cx="280" cy="544" r="12.2" fill="#9aa09b" stroke="#191c19" stroke-width="3"/><circle cx="311" cy="544" r="12.2" fill="#9aa09b" stroke="#191c19" stroke-width="3"/><text x="280" y="615" font-size="17" font-family="sans-serif" font-weight="700" text-anchor="middle" fill="#191c19">F</text></svg>
