<svg xmlns="http://www.w3.org/2000/svg" viewBox="0 0 340 632" width="340" height="632"><rect width="100%" height="100%" fill="#fff"/><rect x="10" y="10" width="100" height="100" fill="#fff" stroke="#191c19" stroke-width="2"/><polygon points="60.0,34.0 84.7,52.0 75.3,81.0 44.7,81.0 35.3,52.0" fill="#191c19" stroke="#191c19" stroke-width="3"/><rect x="120" y="10" width="100" height="100" fill="#fff" stroke="#191c19" stroke-width="2"/><polygon points="147.0,41.0 166.0,60.0 147.0,79.0 128.0,60.0" fill="#191c19" stroke="#191c19" stroke-width="3"/><polygon points="193.0,41.0 212.0,60.0 193.0,79.0 174.0,60.0" fill="#191c19" stroke="#191c19" stroke-width="3"/><rect x="230" y="10" width="100" height="100" fill="#fff" stroke="#191c19" stroke-width="2"/><polygon points="249.0,46.5 260.7,66.8 237.3,66.8" fill="#191c19" stroke="#191c19" stroke-width="3"/><polygon points="280.0,46.5 291.7,66.8 268.3,66.8" fill="#191c19" stroke="#191c19" stroke-width="3"/><polygon points="311.0,46.5 322.7,66.8 299.3,66.8" fill="#191c19" stroke="#191c19" stroke-width="3"/><rect x="10" y="120" width="100" height="100" fill="#fff" stroke="#191c19" stroke-width="2"/><polygon points="29.0,156.5 42.5,170.0 29.0,183.5 15.5,170.0" fill="#9aa09b" stroke="#191c19" stroke-width="3"/><polygon points="60.0,156.5 73.5,170.0 60.0,183.5 46.5,170.0" fill="#9aa09b" stroke="#191c19" stroke-width="3"/><polygon points="91.0,156.5 104.5,170.0 91.0,183.5 77.5,170.0" fill="#9aa09b" stroke="#191c19" stroke-width="3"/><rect x="120" y="120" width="100" height="100" fill="#fff" stroke="#191c19" stroke-width="2"/><polygon points="170.0,144.0 192.5,183.0 147.5,183.0" fill="#9aa09b" stroke="#191c19" stroke-width="3"/><rect x="230" y="120" width="100" height="100" fill="#fff" stroke="#191c19" stroke-width="2"/><polygon points="257.0,151.0 275.1,164.1 268.2,185.4 245.8,185.4 238.9,164.1" fill="#9aa09b" stroke="#191c19" stroke-width="3"/><polygon points="303.0,151.0 321.1,164.1 314.2,185.4 291.8,185.4 284.9,164.1" fill="#9aa09b" stroke="#191c19" stroke-width="3"/><rect x="10" y="230" width="100" height="100" fill="#fff" stroke="#191c19" stroke-width="2"/><polygon points="37.0,261.0 53.5,289.5 20.5,289.5" fill="#ffffff" stroke="#191c19" stroke-width="3"/><polygon points="83.0,261.0 99.5,289.5 66.5,289.5" fill="#ffffff" stroke="#191c19" stroke-width="3"/><rect x="120" y="230" width="100" height="100" fill="#fff" stroke="#191c19" stroke-width="2"/><polygon points="139.0,266.5 151.8,275.8 146.9,290.9 131.1,290.9 126.2,275.8" fill="#ffffff" stroke="#191c19" stroke-width="3"/><polygon points="170.0,266.5 182.8,275.8 177.9,290.9 162.1,290.9 157.2,275.8" fill="#ffffff" stroke="#191c19" stroke-width="3"/><polygon points="201.0,266.5 213.8,275.8 208.9,290.9 193.1,290.9 188.2,275.8" fill="#ffffff" stroke="#191c19" stroke-width="3"/><rect x="230" y="230" width="100" height="100" fill="#fff" stroke="#191c19" stroke-width="2"/><text x="280" y="296" font-size="46" font-family="sans-serif" font-weight="700" text-anchor="middle" fill="#191c19">?</text><line x1="10" y1="346" x2="330" y2="346" stroke="#b9bfb6" stroke-width="1.5"/><rect x="10" y="366" width="100" height="100" fill="#fff" stroke="#191c19" stroke-width="2"/><polygon points="60.0,390.0 86.0,416.0 60.0,442.0 34.0,416.0" fill="#191c19" stroke="#191c19" stroke-width="3"/><text x="60" y="487" font-size="17" font-family="sans-serif" font-weight="700" text-anchor="middle" fill="#191c19">A</text><rect x="120" y="366" width="100" height="100" fill="#fff" stroke="#191c19" stroke-width="2"/><polygon points="147.0,397.0 166.0,416.0 147.0,435.0 128.0,416.0" fill="#ffffff" stroke="#191c19" stroke-width="3"/><polygon points="193.0,397.0 212.0,416.0 193.0,435.0 174.0,416.0" fill="#ffffff" stroke="#191c19" stroke-width="3"/><text x="170" y="487" font-size="17" font-family="sans-serif" font-weight="700" text-anchor="middle" fill="#191c19">B</text><rect x="230" y="366" width="100" height="100" fill="#fff" stroke="#191c19" stroke-width="2"/><polygon points="280.0,390.0 306.0,416.0 280.0,442.0 254.0,416.0" fill="#ffffff" stroke="#191c19" stroke-width="3"/><text x="280" y="487" font-size="17" font-family="sans-serif" font-weight="700" text-anchor="middle" fill="#191c19">C</text><rect x="10" y="494" width="100" height="100" fill="#fff" stroke="#191c19" stroke-width="2"/><circle cx="60" cy="544" r="23.4" fill="#ffffff" stroke="#191c19" stroke-width="3"/><text x="60" y="615" font-size="17" font-family="sans-serif" font-weight="700" text-anchor="middle" fill="#191c19">D</text><rect x="120" y="494" width="100" height="100" fill="#fff" stroke="#191c19" stroke-width="2"/><polygon points="147.0,525.0 163.5,553.5 130.5,553.5" fill="#ffffff" stroke="#191c19" stroke-width="3"/><polygon points="193.0,525.0 209.5,553.5 176.5,553.5" fill="#ffffff" stroke="#191c19" stroke-width="3"/><text x="170" y="615" font-size="17" font-family="sans-serif" font-weight="700" text-anchor="middle" fill="#191c19">E</text><rect x="230" y="494" width="100" height="100" fill="#fff" stroke="#191c19" stroke-width="2"/><polygon points="280.0,518.0 304.7,536.0 295.3,565.0 264.7,565.0 255.3,536.0" fill="#191c19" stroke="#191c19" stroke-width="3"/><text x="280" y="615" font-size="17" font-family="sans-serif" font-weight="700" text-anchor="middle" fill="#191c19">F</text></svg>
