<svg xmlns="http://www.w3.org/2000/svg" viewBox="0 0 340 632" width="340" height="632"><rect width="100%" height="100%" fill="#fff"/><rect x="10" y="10" width="100" height="100" fill="#fff" stroke="#191c19" stroke-width="2"/><polygon points="60.0,34.0 86.0,60.0 60.0,86.0 34.0,60.0" fill="#191c19" stroke="#191c19" stroke-width="3"/><rect x="120" y="10" width="100" height="100" fill="#fff" stroke="#191c19" stroke-width="2"/><polygon points="147.0,41.0 163.5,69.5 130.5,69.5" fill="#ffffff" stroke="#191c19" stroke-width="3"/><polygon points="193.0,41.0 209.5,69.5 176.5,69.5" fill="#ffffff" stroke="#191c19" stroke-width="3"/><rect x="230" y="10" width="100" height="100" fill="#fff" stroke="#191c19" stroke-width="2"/><circle cx="249" cy="60" r="12.2" fill="#9aa09b" stroke="#191c19" stroke-width="3"/><circle cx="280" cy="60" r="12.2" fill="#9aa09b" stroke="#191c19" stroke-width="3"/><circle cx="311" cy="60" r="12.2" fill="#9aa09b" stroke="#191c19" stroke-width="3"/><rect x="10" y="120" width="100" height="100" fill="#fff" stroke="#191c19" stroke-width="2"/><circle cx="60" cy="170" r="23.4" fill="#9aa09b" stroke="#191c19" stroke-width="3"/><rect x="120" y="120" width="100" height="100" fill="#fff" stroke="#191c19" stroke-width="2"/><polygon points="147.0,151.0 166.0,170.0 147.0,189.0 128.0,170.0" fill="#191c19" stroke="#191c19" stroke-width="3"/><polygon points="193.0,151.0 212.0,170.0 193.0,189.0 174.0,170.0" fill="#191c19" stroke="#191c19" stroke-width="3"/><rect x="230" y="120" width="100" height="100" fill="#fff" stroke="#191c19" stroke-width="2"/><polygon points="249.0,156.5 260.7,176.8 237.3,176.8" fill="#ffffff" stroke="#191c19" stroke-width="3"/><polygon points="280.0,156.5 291.7,176.8 268.3,176.8" fill="#ffffff" stroke="#191c19" stroke-width="3"/><polygon points="311.0,156.5 322.7,176.8 299.3,176.8" fill="#ffffff" stroke="#191c19" stroke-width="3"/><rect x="10" y="230" width="100" height="100" fill="#fff" stroke="#191c19" stroke-width="2"/><polygon points="60.0,254.0 82.5,293.0 37.5,293.0" fill="#ffffff" stroke="#191c19" stroke-width="3"/><rect x="120" y="230" width="100" height="100" fill="#fff" stroke="#191c19" stroke-width="2"/><circle cx="147" cy="280" r="17.1" fill="#9aa09b" stroke="#191c19" stroke-width="3"/><circle cx="193" cy="280" r="17.1" fill="#9aa09b" stroke="#191c19" stroke-width="3"/><rect x="230" y="230" width="100" height="100" fill="#fff" stroke="#191c19" stroke-width="2"/><text x="280" y="296" font-size="46" font-family="sans-serif" font-weight="700" text-anchor="middle" fill="#191c19">?</text><line x1="10" y1="346" x2="330" y2="346" stroke="#b9bfb6" stroke-width="1.5"/><rect x="10" y="366" width="100" height="100" fill="#fff" stroke="#191c19" stroke-width="2"/><polygon points="37.0,397.0 56.0,416.0 37.0,435.0 18.0,416.0" fill="#ffffff" stroke="#191c19" stroke-width="3"/><polygon points="83.0,397.0 102.0,416.0 83.0,435.0 64.0,416.0" fill="#ffffff" stroke="#191c19" stroke-width="3"/><text x="60" y="487" font-size="17" font-family="sans-serif" font-weight="700" text-anchor="middle" fill="#191c19">A</text><rect x="120" y="366" width="100" height="100" fill="#fff" stroke="#191c19" stroke-width="2"/><polygon points="139.0,402.5 152.5,416.0 139.0,429.5 125.5,416.0" fill="#191c19" stroke="#191c19" stroke-width="3"/><polygon points="170.0,402.5 183.5,416.0 170.0,429.5 156.5,416.0" fill="#191c19" stroke="#191c19" stroke-width="3"/><polygon points="201.0,402.5 214.5,416.0 201.0,429.5 187.5,416.0" fill="#191c19" stroke="#191c19" stroke-width="3"/><text x="170" y="487" font-size="17" font-family="sans-serif" font-weight="700" text-anchor="middle" fill="#191c19">B</text><rect x="230" y="366" width="100" height="100" fill="#fff" stroke="#191c19" stroke-width="2"/><polygon points="280.0,390.0 302.5,429.0 257.5,429.0" fill="#ffffff" stroke="#191c19" stroke-width="3"/><text x="280" y="487" font-size="17" font-family="sans-serif" font-weight="700" text-anchor="middle" fill="#191c19">C</text><rect x="10" y="494" width="100" height="100" fill="#fff" stroke="#191c19" stroke-width="2"/><polygon points="29.0,530.5 42.5,544.0 29.0,557.5 15.5,544.0" fill="#ffffff" stroke="#191c19" stroke-width="3"/><polygon points="60.0,530.5 73.5,544.0 60.0,557.5 46.5,544.0" fill="#ffffff" stroke="#191c19" stroke-width="3"/><polygon points="91.0,530.5 104.5,544.0 91.0,557.5 77.5,544.0" fill="#ffffff" stroke="#191c19" stroke-width="3"/><text x="60" y="615" font-size="17" font-family="sans-serif" font-weight="700" text-anchor="middle" fill="#191c19">D</text><rect x="120" y="494" width="100" height="100" fill="#fff" stroke="#191c19" stroke-width="2"/><polygon points="147.0,525.0 166.0,544.0 147.0,563.0 128.0,544.0" fill="#191c19" stroke="#191c19" stroke-width="3"/><polygon points="193.0,525.0 212.0,544.0 193.0,563.0 174.0,544.0" fill="#191c19" stroke="#191c19" stroke-width="3"/><text x="170" y="615" font-size="17" font-family="sans-serif" font-weight="700" text-anchor="middle" fill="#191c19">E</text><rect x="230" y="494" width="100" height="100" fill="#fff" stroke="#191c19" stroke-width="2"/><polygon points="257.0,525.0 273.5,553.5 240.5,553.5" fill="#ffffff" stroke="#191c19" stroke-width="3"/><polygon points="303.0,525.0 319.5,553.5 286.5,553.5" fill="#ffffff" stroke="#191c19" stroke-width="3"/><text x="280" y="615" font-size="17" font-family="sans-serif" font-weight="700" text-anchor="middle" fill="#191c19">F</text></svg>
