<svg xmlns="http://www.w3.org/2000/svg" viewBox="0 0 340 632" width="340" height="632"><rect width="100%" height="100%" fill="#fff"/><rect x="10" y="10" width="100" height="100" fill="#fff" stroke="#191c19" stroke-width="2"/><circle cx="29" cy="60" r="12.2" fill="#9aa09b" stroke="#191c19" stroke-width="3"/><circle cx="60" cy="60" r="12.2" fill="#9aa09b" stroke="#191c19" stroke-width="3"/><circle cx="91" cy="60" r="12.2" fill="#9aa09b" stroke="#191c19" stroke-width="3"/><rect x="120" y="10" width="100" height="100" fill="#fff" stroke="#191c19" stroke-width="2"/><rect x="132.2" y="45.2" width="29.6" height="29.6" fill="#191c19" stroke="#191c19" stroke-width="3"/><rect x="178.2" y="45.2" width="29.6" height="29.6" fill="#191c19" stroke="#191c19" stroke-width="3"/><rect x="230" y="10" width="100" height="100" fill="#fff" stroke="#191c19" stroke-width="2"/><polygon points="280.0,34.0 304.7,52.0 295.3,81.0 264.7,81.0 255.3,52.0" fill="#ffffff" stroke="#191c19" stroke-width="3"/><rect x="10" y="120" width="100" height="100" fill="#fff" stroke="#191c19" stroke-width="2"/><rect x="18.5" y="159.5" width="21.1" height="21.1" fill="#191c19" stroke="#191c19" stroke-width="3"/><rect x="49.5" y="159.5" width="21.1" height="21.1" fill="#191c19" stroke="#191c19" stroke-width="3"/><rect x="80.5" y="159.5" width="21.1" height="21.1" fill="#191c19" stroke="#191c19" stroke-width="3"/><rect x="120" y="120" width="100" height="100" fill="#fff" stroke="#191c19" stroke-width="2"/><polygon points="147.0,151.0 165.1,164.1 158.2,185.4 135.8,185.4 128.9,164.1" fill="#ffffff" stroke="#191c19" stroke-width="3"/><polygon points="193.0,151.0 211.1,164.1 204.2,185.4 181.8,185.4 174.9,164.1" fill="#ffffff" stroke="#191c19" stroke-width="3"/><rect x="230" y="120" width="100" height="100" fill="#fff" stroke="#191c19" stroke-width="2"/><circle cx="280" cy="170" r="23.4" fill="#9aa09b" stroke="#191c19" stroke-width="3"/><rect x="10" y="230" width="100" height="100" fill="#fff" stroke="#191c19" stroke-width="2"/><polygon points="29.0,266.5 41.8,275.8 36.9,290.9 21.1,290.9 16.2,275.8" fill="#ffffff" stroke="#191c19" stroke-width="3"/><polygon points="60.0,266.5 72.8,275.8 67.9,290.9 52.1,290.9 47.2,275.8" fill="#ffffff" stroke="#191c19" stroke-width="3"/><polygon points="91.0,266.5 103.8,275.8 98.9,290.9 83.1,290.9 78.2,275.8" fill="#ffffff" stroke="#191c19" stroke-width="3"/><rect x="120" y="230" width="100" height="100" fill="#fff" stroke="#191c19" stroke-width="2"/><circle cx="147" cy="280" r="17.1" fill="#9aa09b" stroke="#191c19" stroke-width="3"/><circle cx="193" cy="280" r="17.1" fill="#9aa09b" stroke="#191c19" stroke-width="3"/><rect x="230" y="230" width="100" height="100" fill="#fff" stroke="#191c19" stroke-width="2"/><text x="280" y="296" font-size="46" font-family="sans-serif" font-weight="700" text-anchor="middle" fill="#191c19">?</text><line x1="10" y1="346" x2="330" y2="346" stroke="#b9bfb6" stroke-width="1.5"/><rect x="10" y="366" width="100" height="100" fill="#fff" stroke="#191c19" stroke-width="2"/><polygon points="29.0,402.5 41.8,411.8 36.9,426.9 21.1,426.9 16.2,411.8" fill="#ffffff" stroke="#191c19" stroke-width="3"/><polygon points="60.0,402.5 72.8,411.8 67.9,426.9 52.1,426.9 47.2,411.8" fill="#ffffff" stroke="#191c19" stroke-width="3"/><polygon points="91.0,402.5 103.8,411.8 98.9,426.9 83.1,426.9 78.2,411.8" fill="#ffffff" stroke="#191c19" stroke-width="3"/><text x="60" y="487" font-size="17" font-family="sans-serif" font-weight="700" text-anchor="middle" fill="#191c19">A</text><rect x="120" y="366" width="100" height="100" fill="#fff" stroke="#191c19" stroke-width="2"/><rect x="149.7" y="395.7" width="40.6" height="40.6" fill="#191c19" stroke="#191c19" stroke-width="3"/><text x="170" y="487" font-size="17" font-family="sans-serif" font-weight="700" text-anchor="middle" fill="#191c19">B</text><rect x="230" y="366" width="100" height="100" fill="#fff" stroke="#191c19" stroke-width="2"/><rect x="238.5" y="405.5" width="21.1" height="21.1" fill="#191c19" stroke="#191c19" stroke-width="3"/><rect x="269.5" y="405.5" width="21.1" height="21.1" fill="#191c19" stroke="#191c19" stroke-width="3"/><rect x="300.5" y="405.5" width="21.1" height="21.1" fill="#191c19" stroke="#191c19" stroke-width="3"/><text x="280" y="487" font-size="17" font-family="sans-serif" font-weight="700" text-anchor="middle" fill="#191c19">C</text><rect x="10" y="494" width="100" height="100" fill="#fff" stroke="#191c19" stroke-width="2"/><polygon points="60.0,518.0 86.0,544.0 60.0,570.0 34.0,544.0" fill="#ffffff" stroke="#191c19" stroke-width="3"/><text x="60" y="615" font-size="17" font-family="sans-serif" font-weight="700" text-anchor="middle" fill="#191c19">D</text><rect x="120" y="494" width="100" height="100" fill="#fff" stroke="#191c19" stroke-width="2"/><polygon points="170.0,518.0 196.0,544.0 170.0,570.0 144.0,544.0" fill="#191c19" stroke="#191c19" stroke-width="3"/><text x="170" y="615" font-size="17" font-family="sans-serif" font-weight="700" text-anchor="middle" fill="#191c19">E</text><rect x="230" y="494" width="100" height="100" fill="#fff" stroke="#191c19" stroke-width="2"/><rect x="259.7" y="523.7" width="40.6" height="40.6" fill="#9aa09b" stroke="#191c19" stroke-width="3"/><text x="280" y="615" font-size="17" font-family="sans-serif" font-weight="700" text-anchor="middle" fill="#191c19">F</text></svg>
