<svg xmlns="http://www.w3.org/2000/svg" viewBox="0 0 340 632" width="340" height="632"><rect width="100%" height="100%" fill="#fff"/><rect x="10" y="10" width="100" height="100" fill="#fff" stroke="#191c19" stroke-width="2"/><rect x="39.7" y="39.7" width="40.6" height="40.6" fill="#191c19" stroke="#191c19" stroke-width="3"/><rect x="120" y="10" width="100" height="100" fill="#fff" stroke="#191c19" stroke-width="2"/><rect x="132.2" y="45.2" width="29.6" height="29.6" fill="#9aa09b" stroke="#191c19" stroke-width="3"/><rect x="178.2" y="45.2" width="29.6" height="29.6" fill="#9aa09b" stroke="#191c19" stroke-width="3"/><rect x="230" y="10" width="100" height="100" fill="#fff" stroke="#191c19" stroke-width="2"/><rect x="238.5" y="49.5" width="21.1" height="21.1" fill="#ffffff" stroke="#191c19" stroke-width="3"/><rect x="269.5" y="49.5" width="21.1" height="21.1" fill="#ffffff" stroke="#191c19" stroke-width="3"/><rect x="300.5" y="49.5" width="21.1" height="21.1" fill="#ffffff" stroke="#191c19" stroke-width="3"/><rect x="10" y="120" width="100" height="100" fill="#fff" stroke="#191c19" stroke-width="2"/><polygon points="37.0,151.0 53.5,179.5 20.5,179.5" fill="#ffffff" stroke="#191c19" stroke-width="3"/><polygon points="83.0,151.0 99.5,179.5 66.5,179.5" fill="#ffffff" stroke="#191c19" stroke-width="3"/><rect x="120" y="120" width="100" height="100" fill="#fff" stroke="#191c19" stroke-width="2"/><polygon points="139.0,156.5 150.7,176.8 127.3,176.8" fill="#191c19" stroke="#191c19" stroke-width="3"/><polygon points="170.0,156.5 181.7,176.8 158.3,176.8" fill="#191c19" stroke="#191c19" stroke-width="3"/><polygon points="201.0,156.5 212.7,176.8 189.3,176.8" fill="#191c19" stroke="#191c19" stroke-width="3"/><rect x="230" y="120" width="100" height="100" fill="#fff" stroke="#191c19" stroke-width="2"/><polygon points="280.0,144.0 302.5,183.0 257.5,183.0" fill="#9aa09b" stroke="#191c19" stroke-width="3"/><rect x="10" y="230" width="100" height="100" fill="#fff" stroke="#191c19" stroke-width="2"/><polygon points="29.0,266.5 42.5,280.0 29.0,293.5 15.5,280.0" fill="#9aa09b" stroke="#191c19" stroke-width="3"/><polygon points="60.0,266.5 73.5,280.0 60.0,293.5 46.5,280.0" fill="#9aa09b" stroke="#191c19" stroke-width="3"/><polygon points="91.0,266.5 104.5,280.0 91.0,293.5 77.5,280.0" fill="#9aa09b" stroke="#191c19" stroke-width="3"/><rect x="120" y="230" width="100" height="100" fill="#fff" stroke="#191c19" stroke-width="2"/><polygon points="170.0,254.0 196.0,280.0 170.0,306.0 144.0,280.0" fill="#ffffff" stroke="#191c19" stroke-width="3"/><rect x="230" y="230" width="100" height="100" fill="#fff" stroke="#191c19" stroke-width="2"/><text x="280" y="296" font-size="46" font-family="sans-serif" font-weight="700" text-anchor="middle" fill="#191c19">?</text><line x1="10" y1="346" x2="330" y2="346" stroke="#b9bfb6" stroke-width="1.5"/><rect x="10" y="366" width="100" height="100" fill="#fff" stroke="#191c19" stroke-width="2"/><rect x="22.2" y="401.2" width="29.6" height="29.6" fill="#9aa09b" stroke="#191c19" stroke-width="3"/><rect x="68.2" y="401.2" width="29.6" height="29.6" fill="#9aa09b" stroke="#191c19" stroke-width="3"/><text x="60" y="487" font-size="17" font-family="sans-serif" font-weight="700" text-anchor="middle" fill="#191c19">A</text><rect x="120" y="366" width="100" height="100" fill="#fff" stroke="#191c19" stroke-width="2"/><polygon points="147.0,397.0 166.0,416.0 147.0,435.0 128.0,416.0" fill="#191c19" stroke="#191c19" stroke-width="3"/><polygon points="193.0,397.0 212.0,416.0 193.0,435.0 174.0,416.0" fill="#191c19" stroke="#191c19" stroke-width="3"/><text x="170" y="487" font-size="17" font-family="sans-serif" font-weight="700" text-anchor="middle" fill="#191c19">B</text><rect x="230" y="366" width="100" height="100" fill="#fff" stroke="#191c19" stroke-width="2"/><polygon points="280.0,390.0 306.0,416.0 280.0,442.0 254.0,416.0" fill="#191c19" stroke="#191c19" stroke-width="3"/><text x="280" y="487" font-size="17" font-family="sans-serif" font-weight="700" text-anchor="middle" fill="#191c19">C</text><rect x="10" y="494" width="100" height="100" fill="#fff" stroke="#191c19" stroke-width="2"/><polygon points="37.0,525.0 56.0,544.0 37.0,563.0 18.0,544.0" fill="#ffffff" stroke="#191c19" stroke-width="3"/><polygon points="83.0,525.0 102.0,544.0 83.0,563.0 64.0,544.0" fill="#ffffff" stroke="#191c19" stroke-width="3"/><text x="60" y="615" font-size="17" font-family="sans-serif" font-weight="700" text-anchor="middle" fill="#191c19">D</text><rect x="120" y="494" width="100" height="100" fill="#fff" stroke="#191c19" stroke-width="2"/><rect x="149.7" y="523.7" width="40.6" height="40.6" fill="#191c19" stroke="#191c19" stroke-width="3"/><text x="170" y="615" font-size="17" font-family="sans-serif" font-weight="700" text-anchor="middle" fill="#191c19">E</text><rect x="230" y="494" width="100" height="100" fill="#fff" stroke="#191c19" stroke-width="2"/><polygon points="249.0,530.5 260.7,550.8 237.3,550.8" fill="#191c19" stroke="#191c19" stroke-width="3"/><polygon points="280.0,530.5 291.7,550.8 268.3,550.8" fill="#191c19" stroke="#191c19" stroke-width="3"/><polygon points="311.0,530.5 322.7,550.8 299.3,550.8" fill="#191c19" stroke="#191c19" stroke-width="3"/><text x="280" y="615" font-size="17" font-family="sans-serif" font-weight="700" text-anchor="middle" fill="#191c19">F</text></svg>
