<svg xmlns="http://www.w3.org/2000/svg" viewBox="0 0 340 632" width="340" height="632"><rect width="100%" height="100%" fill="#fff"/><rect x="10" y="10" width="100" height="100" fill="#fff" stroke="#191c19" stroke-width="2"/><polygon points="60.0,34.0 86.0,60.0 60.0,86.0 34.0,60.0" fill="#ffffff" stroke="#191c19" stroke-width="3"/><rect x="120" y="10" width="100" height="100" fill="#fff" stroke="#191c19" stroke-width="2"/><rect x="149.7" y="39.7" width="40.6" height="40.6" fill="#9aa09b" stroke="#191c19" stroke-width="3"/><rect x="230" y="10" width="100" height="100" fill="#fff" stroke="#191c19" stroke-width="2"/><polygon points="280.0,34.0 302.5,73.0 257.5,73.0" fill="#191c19" stroke="#191c19" stroke-width="3"/><rect x="10" y="120" width="100" height="100" fill="#fff" stroke="#191c19" stroke-width="2"/><rect x="22.2" y="155.2" width="29.6" height="29.6" fill="#9aa09b" stroke="#191c19" stroke-width="3"/><rect x="68.2" y="155.2" width="29.6" height="29.6" fill="#9aa09b" stroke="#191c19" stroke-width="3"/><rect x="120" y="120" width="100" height="100" fill="#fff" stroke="#191c19" stroke-width="2"/><polygon points="147.0,151.0 163.5,179.5 130.5,179.5" fill="#191c19" stroke="#191c19" stroke-width="3"/><polygon points="193.0,151.0 209.5,179.5 176.5,179.5" fill="#191c19" stroke="#191c19" stroke-width="3"/><rect x="230" y="120" width="100" height="100" fill="#fff" stroke="#191c19" stroke-width="2"/><polygon points="257.0,151.0 276.0,170.0 257.0,189.0 238.0,170.0" fill="#ffffff" stroke="#191c19" stroke-width="3"/><polygon points="303.0,151.0 322.0,170.0 303.0,189.0 284.0,170.0" fill="#ffffff" stroke="#191c19" stroke-width="3"/><rect x="10" y="230" width="100" height="100" fill="#fff" stroke="#191c19" stroke-width="2"/><polygon points="29.0,266.5 40.7,286.8 17.3,286.8" fill="#191c19" stroke="#191c19" stroke-width="3"/><polygon points="60.0,266.5 71.7,286.8 48.3,286.8" fill="#191c19" stroke="#191c19" stroke-width="3"/><polygon points="91.0,266.5 102.7,286.8 79.3,286.8" fill="#191c19" stroke="#191c19" stroke-width="3"/><rect x="120" y="230" width="100" height="100" fill="#fff" stroke="#191c19" stroke-width="2"/><polygon points="139.0,266.5 152.5,280.0 139.0,293.5 125.5,280.0" fill="#ffffff" stroke="#191c19" stroke-width="3"/><polygon points="170.0,266.5 183.5,280.0 170.0,293.5 156.5,280.0" fill="#ffffff" stroke="#191c19" stroke-width="3"/><polygon points="201.0,266.5 214.5,280.0 201.0,293.5 187.5,280.0" fill="#ffffff" stroke="#191c19" stroke-width="3"/><rect x="230" y="230" width="100" height="100" fill="#fff" stroke="#191c19" stroke-width="2"/><text x="280" y="296" font-size="46" font-family="sans-serif" font-weight="700" text-anchor="middle" fill="#191c19">?</text><line x1="10" y1="346" x2="330" y2="346" stroke="#b9bfb6" stroke-width="1.5"/><rect x="10" y="366" width="100" height="100" fill="#fff" stroke="#191c19" stroke-width="2"/><rect x="18.5" y="405.5" width="21.1" height="21.1" fill="#9aa09b" stroke="#191c19" stroke-width="3"/><rect x="49.5" y="405.5" width="21.1" height="21.1" fill="#9aa09b" stroke="#191c19" stroke-width="3"/><rect x="80.5" y="405.5" width="21.1" height="21.1" fill="#9aa09b" stroke="#191c19" stroke-width="3"/><text x="60" y="487" font-size="17" font-family="sans-serif" font-weight="700" text-anchor="middle" fill="#191c19">A</text><rect x="120" y="366" width="100" height="100" fill="#fff" stroke="#191c19" stroke-width="2"/><rect x="149.7" y="395.7" width="40.6" height="40.6" fill="#9aa09b" stroke="#191c19" stroke-width="3"/><text x="170" y="487" font-size="17" font-family="sans-serif" font-weight="700" text-anchor="middle" fill="#191c19">B</text><rect x="230" y="366" width="100" height="100" fill="#fff" stroke="#191c19" stroke-width="2"/><circle cx="249" cy="416" r="12.2" fill="#9aa09b" stroke="#191c19" stroke-width="3"/><circle cx="280" cy="416" r="12.2" fill="#9aa09b" stroke="#191c19" stroke-width="3"/><circle cx="311" cy="416" r="12.2" fill="#9aa09b" stroke="#191c19" stroke-width="3"/><text x="280" y="487" font-size="17" font-family="sans-serif" font-weight="700" text-anchor="middle" fill="#191c19">C</text><rect x="10" y="494" width="100" height="100" fill="#fff" stroke="#191c19" stroke-width="2"/><rect x="18.5" y="533.5" width="21.1" height="21.1" fill="#ffffff" stroke="#191c19" stroke-width="3"/><rect x="49.5" y="533.5" width="21.1" height="21.1" fill="#ffffff" stroke="#191c19" stroke-width="3"/><rect x="80.5" y="533.5" width="21.1" height="21.1" fill="#ffffff" stroke="#191c19" stroke-width="3"/><text x="60" y="615" font-size="17" font-family="sans-serif" font-weight="700" text-anchor="middle" fill="#191c19">D</text><rect x="120" y="494" width="100" height="100" fill="#fff" stroke="#191c19" stroke-width="2"/><polygon points="170.0,518.0 196.0,544.0 170.0,570.0 144.0,544.0" fill="#ffffff" stroke="#191c19" stroke-width="3"/><text x="170" y="615" font-size="17" font-family="sans-serif" font-weight="700" text-anchor="middle" fill="#191c19">E</text><rect x="230" y="494" width="100" height="100" fill="#fff" stroke="#191c19" stroke-width="2"/><polygon points="249.0,530.5 261.8,539.8 256.9,554.9 241.1,554.9 236.2,539.8" fill="#ffffff" stroke="#191c19" stroke-width="3"/><polygon points="280.0,530.5 292.8,539.8 287.9,554.9 272.1,554.9 267.2,539.8" fill="#ffffff" stroke="#191c19" stroke-width="3"/><polygon points="311.0,530.5 323.8,539.8 318.9,554.9 303.1,554.9 298.2,539.8" fill="#ffffff" stroke="#191c19" stroke-width="3"/><text x="280" y="615" font-size="17" font-family="sans-serif" font-weight="700" text-anchor="middle" fill="#191c19">F</text></svg>
