<svg xmlns="http://www.w3.org/2000/svg" viewBox="0 0 340 632" width="340" height="632"><rect width="100%" height="100%" fill="#fff"/><rect x="10" y="10" width="100" height="100" fill="#fff" stroke="#191c19" stroke-width="2"/><circle cx="60" cy="60" r="23.4" fill="#ffffff" stroke="#191c19" stroke-width="3"/><rect x="120" y="10" width="100" height="100" fill="#fff" stroke="#191c19" stroke-width="2"/><polygon points="147.0,41.0 166.0,60.0 147.0,79.0 128.0,60.0" fill="#191c19" stroke="#191c19" stroke-width="3"/><polygon points="193.0,41.0 212.0,60.0 193.0,79.0 174.0,60.0" fill="#191c19" stroke="#191c19" stroke-width="3"/><rect x="230" y="10" width="100" height="100" fill="#fff" stroke="#191c19" stroke-width="2"/><polygon points="249.0,46.5 260.7,66.8 237.3,66.8" fill="#9aa09b" stroke="#191c19" stroke-width="3"/><polygon points="280.0,46.5 291.7,66.8 268.3,66.8" fill="#9aa09b" stroke="#191c19" stroke-width="3"/><polygon points="311.0,46.5 322.7,66.8 299.3,66.8" fill="#9aa09b" stroke="#191c19" stroke-width="3"/><rect x="10" y="120" width="100" height="100" fill="#fff" stroke="#191c19" stroke-width="2"/><polygon points="60.0,144.0 82.5,183.0 37.5,183.0" fill="#191c19" stroke="#191c19" stroke-width="3"/><rect x="120" y="120" width="100" height="100" fill="#fff" stroke="#191c19" stroke-width="2"/><circle cx="147" cy="170" r="17.1" fill="#9aa09b" stroke="#191c19" stroke-width="3"/><circle cx="193" cy="170" r="17.1" fill="#9aa09b" stroke="#191c19" stroke-width="3"/><rect x="230" y="120" width="100" height="100" fill="#fff" stroke="#191c19" stroke-width="2"/><polygon points="249.0,156.5 262.5,170.0 249.0,183.5 235.5,170.0" fill="#ffffff" stroke="#191c19" stroke-width="3"/><polygon points="280.0,156.5 293.5,170.0 280.0,183.5 266.5,170.0" fill="#ffffff" stroke="#191c19" stroke-width="3"/><polygon points="311.0,156.5 324.5,170.0 311.0,183.5 297.5,170.0" fill="#ffffff" stroke="#191c19" stroke-width="3"/><rect x="10" y="230" width="100" height="100" fill="#fff" stroke="#191c19" stroke-width="2"/><polygon points="60.0,254.0 86.0,280.0 60.0,306.0 34.0,280.0" fill="#9aa09b" stroke="#191c19" stroke-width="3"/><rect x="120" y="230" width="100" height="100" fill="#fff" stroke="#191c19" stroke-width="2"/><polygon points="147.0,261.0 163.5,289.5 130.5,289.5" fill="#ffffff" stroke="#191c19" stroke-width="3"/><polygon points="193.0,261.0 209.5,289.5 176.5,289.5" fill="#ffffff" stroke="#191c19" stroke-width="3"/><rect x="230" y="230" width="100" height="100" fill="#fff" stroke="#191c19" stroke-width="2"/><text x="280" y="296" font-size="46" font-family="sans-serif" font-weight="700" text-anchor="middle" fill="#191c19">?</text><line x1="10" y1="346" x2="330" y2="346" stroke="#b9bfb6" stroke-width="1.5"/><rect x="10" y="366" width="100" height="100" fill="#fff" stroke="#191c19" stroke-width="2"/><circle cx="37" cy="416" r="17.1" fill="#191c19" stroke="#191c19" stroke-width="3"/><circle cx="83" cy="416" r="17.1" fill="#191c19" stroke="#191c19" stroke-width="3"/><text x="60" y="487" font-size="17" font-family="sans-serif" font-weight="700" text-anchor="middle" fill="#191c19">A</text><rect x="120" y="366" width="100" height="100" fill="#fff" stroke="#191c19" stroke-width="2"/><polygon points="170.0,390.0 196.0,416.0 170.0,442.0 144.0,416.0" fill="#9aa09b" stroke="#191c19" stroke-width="3"/><text x="170" y="487" font-size="17" font-family="sans-serif" font-weight="700" text-anchor="middle" fill="#191c19">B</text><rect x="230" y="366" width="100" height="100" fill="#fff" stroke="#191c19" stroke-width="2"/><circle cx="249" cy="416" r="12.2" fill="#191c19" stroke="#191c19" stroke-width="3"/><circle cx="280" cy="416" r="12.2" fill="#191c19" stroke="#191c19" stroke-width="3"/><circle cx="311" cy="416" r="12.2" fill="#191c19" stroke="#191c19" stroke-width="3"/><text x="280" y="487" font-size="17" font-family="sans-serif" font-weight="700" text-anchor="middle" fill="#191c19">C</text><rect x="10" y="494" width="100" height="100" fill="#fff" stroke="#191c19" stroke-width="2"/><circle cx="37" cy="544" r="17.1" fill="#9aa09b" stroke="#191c19" stroke-width="3"/><circle cx="83" cy="544" r="17.1" fill="#9aa09b" stroke="#191c19" stroke-width="3"/><text x="60" y="615" font-size="17" font-family="sans-serif" font-weight="700" text-anchor="middle" fill="#191c19">D</text><rect x="120" y="494" width="100" height="100" fill="#fff" stroke="#191c19" stroke-width="2"/><polygon points="170.0,518.0 192.5,557.0 147.5,557.0" fill="#191c19" stroke="#191c19" stroke-width="3"/><text x="170" y="615" font-size="17" font-family="sans-serif" font-weight="700" text-anchor="middle" fill="#191c19">E</text><rect x="230" y="494" width="100" height="100" fill="#fff" stroke="#191c19" stroke-width="2"/><polygon points="249.0,530.5 260.7,550.8 237.3,550.8" fill="#191c19" stroke="#191c19" stroke-width="3"/><polygon points="280.0,530.5 291.7,550.8 268.3,550.8" fill="#191c19" stroke="#191c19" stroke-width="3"/><polygon points="311.0,530.5 322.7,550.8 299.3,550.8" fill="#191c19" stroke="#191c19" stroke-width="3"/><text x="280" y="615" font-size="17" font-family="sans-serif" font-weight="700" text-anchor="middle" fill="#191c19">F</text></svg>
