<svg xmlns="http://www.w3.org/2000/svg" viewBox="0 0 340 632" width="340" height="632"><rect width="100%" height="100%" fill="#fff"/><rect x="10" y="10" width="100" height="100" fill="#fff" stroke="#191c19" stroke-width="2"/><polygon points="60.0,34.0 82.5,73.0 37.5,73.0" fill="#9aa09b" stroke="#191c19" stroke-width="3"/><rect x="120" y="10" width="100" height="100" fill="#fff" stroke="#191c19" stroke-width="2"/><polygon points="170.0,34.0 192.5,73.0 147.5,73.0" fill="#ffffff" stroke="#191c19" stroke-width="3"/><rect x="230" y="10" width="100" height="100" fill="#fff" stroke="#191c19" stroke-width="2"/><polygon points="280.0,34.0 302.5,73.0 257.5,73.0" fill="#191c19" stroke="#191c19" stroke-width="3"/><rect x="10" y="120" width="100" height="100" fill="#fff" stroke="#191c19" stroke-width="2"/><rect x="18.5" y="159.5" width="21.1" height="21.1" fill="#191c19" stroke="#191c19" stroke-width="3"/><rect x="49.5" y="159.5" width="21.1" height="21.1" fill="#191c19" stroke="#191c19" stroke-width="3"/><rect x="80.5" y="159.5" width="21.1" height="21.1" fill="#191c19" stroke="#191c19" stroke-width="3"/><rect x="120" y="120" width="100" height="100" fill="#fff" stroke="#191c19" stroke-width="2"/><rect x="128.5" y="159.5" width="21.1" height="21.1" fill="#9aa09b" stroke="#191c19" stroke-width="3"/><rect x="159.5" y="159.5" width="21.1" height="21.1" fill="#9aa09b" stroke="#191c19" stroke-width="3"/><rect x="190.5" y="159.5" width="21.1" height="21.1" fill="#9aa09b" stroke="#191c19" stroke-width="3"/><rect x="230" y="120" width="100" height="100" fill="#fff" stroke="#191c19" stroke-width="2"/><rect x="238.5" y="159.5" width="21.1" height="21.1" fill="#ffffff" stroke="#191c19" stroke-width="3"/><rect x="269.5" y="159.5" width="21.1" height="21.1" fill="#ffffff" stroke="#191c19" stroke-width="3"/><rect x="300.5" y="159.5" width="21.1" height="21.1" fill="#ffffff" stroke="#191c19" stroke-width="3"/><rect x="10" y="230" width="100" height="100" fill="#fff" stroke="#191c19" stroke-width="2"/><polygon points="37.0,261.0 55.1,274.1 48.2,295.4 25.8,295.4 18.9,274.1" fill="#ffffff" stroke="#191c19" stroke-width="3"/><polygon points="83.0,261.0 101.1,274.1 94.2,295.4 71.8,295.4 64.9,274.1" fill="#ffffff" stroke="#191c19" stroke-width="3"/><rect x="120" y="230" width="100" height="100" fill="#fff" stroke="#191c19" stroke-width="2"/><polygon points="147.0,261.0 165.1,274.1 158.2,295.4 135.8,295.4 128.9,274.1" fill="#191c19" stroke="#191c19" stroke-width="3"/><polygon points="193.0,261.0 211.1,274.1 204.2,295.4 181.8,295.4 174.9,274.1" fill="#191c19" stroke="#191c19" stroke-width="3"/><rect x="230" y="230" width="100" height="100" fill="#fff" stroke="#191c19" stroke-width="2"/><text x="280" y="296" font-size="46" font-family="sans-serif" font-weight="700" text-anchor="middle" fill="#191c19">?</text><line x1="10" y1="346" x2="330" y2="346" stroke="#b9bfb6" stroke-width="1.5"/><rect x="10" y="366" width="100" height="100" fill="#fff" stroke="#191c19" stroke-width="2"/><rect x="18.5" y="405.5" width="21.1" height="21.1" fill="#191c19" stroke="#191c19" stroke-width="3"/><rect x="49.5" y="405.5" width="21.1" height="21.1" fill="#191c19" stroke="#191c19" stroke-width="3"/><rect x="80.5" y="405.5" width="21.1" height="21.1" fill="#191c19" stroke="#191c19" stroke-width="3"/><text x="60" y="487" font-size="17" font-family="sans-serif" font-weight="700" text-anchor="middle" fill="#191c19">A</text><rect x="120" y="366" width="100" height="100" fill="#fff" stroke="#191c19" stroke-width="2"/><polygon points="147.0,397.0 165.1,410.1 158.2,431.4 135.8,431.4 128.9,410.1" fill="#ffffff" stroke="#191c19" stroke-width="3"/><polygon points="193.0,397.0 211.1,410.1 204.2,431.4 181.8,431.4 174.9,410.1" fill="#ffffff" stroke="#191c19" stroke-width="3"/><text x="170" y="487" font-size="17" font-family="sans-serif" font-weight="700" text-anchor="middle" fill="#191c19">B</text><rect x="230" y="366" width="100" height="100" fill="#fff" stroke="#191c19" stroke-width="2"/><polygon points="280.0,390.0 304.7,408.0 295.3,437.0 264.7,437.0 255.3,408.0" fill="#9aa09b" stroke="#191c19" stroke-width="3"/><text x="280" y="487" font-size="17" font-family="sans-serif" font-weight="700" text-anchor="middle" fill="#191c19">C</text><rect x="10" y="494" width="100" height="100" fill="#fff" stroke="#191c19" stroke-width="2"/><polygon points="60.0,518.0 82.5,557.0 37.5,557.0" fill="#9aa09b" stroke="#191c19" stroke-width="3"/><text x="60" y="615" font-size="17" font-family="sans-serif" font-weight="700" text-anchor="middle" fill="#191c19">D</text><rect x="120" y="494" width="100" height="100" fill="#fff" stroke="#191c19" stroke-width="2"/><polygon points="147.0,525.0 165.1,538.1 158.2,559.4 135.8,559.4 128.9,538.1" fill="#9aa09b" stroke="#191c19" stroke-width="3"/><polygon points="193.0,525.0 211.1,538.1 204.2,559.4 181.8,559.4 174.9,538.1" fill="#9aa09b" stroke="#191c19" stroke-width="3"/><text x="170" y="615" font-size="17" font-family="sans-serif" font-weight="700" text-anchor="middle" fill="#191c19">E</text><rect x="230" y="494" width="100" height="100" fill="#fff" stroke="#191c19" stroke-width="2"/><polygon points="280.0,518.0 304.7,536.0 295.3,565.0 264.7,565.0 255.3,536.0" fill="#ffffff" stroke="#191c19" stroke-width="3"/><text x="280" y="615" font-size="17" font-family="sans-serif" font-weight="700" text-anchor="middle" fill="#191c19">F</text></svg>
