<svg xmlns="http://www.w3.org/2000/svg" viewBox="0 0 340 632" width="340" height="632"><rect width="100%" height="100%" fill="#fff"/><rect x="10" y="10" width="100" height="100" fill="#fff" stroke="#191c19" stroke-width="2"/><rect x="18.5" y="49.5" width="21.1" height="21.1" fill="#ffffff" stroke="#191c19" stroke-width="3"/><rect x="49.5" y="49.5" width="21.1" height="21.1" fill="#ffffff" stroke="#191c19" stroke-width="3"/><rect x="80.5" y="49.5" width="21.1" height="21.1" fill="#ffffff" stroke="#191c19" stroke-width="3"/><rect x="120" y="10" width="100" height="100" fill="#fff" stroke="#191c19" stroke-width="2"/><rect x="149.7" y="39.7" width="40.6" height="40.6" fill="#ffffff" stroke="#191c19" stroke-width="3"/><rect x="230" y="10" width="100" height="100" fill="#fff" stroke="#191c19" stroke-width="2"/><rect x="242.2" y="45.2" width="29.6" height="29.6" fill="#ffffff" stroke="#191c19" stroke-width="3"/><rect x="288.2" y="45.2" width="29.6" height="29.6" fill="#ffffff" stroke="#191c19" stroke-width="3"/><rect x="10" y="120" width="100" height="100" fill="#fff" stroke="#191c19" stroke-width="2"/><polygon points="37.0,151.0 55.1,164.1 48.2,185.4 25.8,185.4 18.9,164.1" fill="#191c19" stroke="#191c19" stroke-width="3"/><polygon points="83.0,151.0 101.1,164.1 94.2,185.4 71.8,185.4 64.9,164.1" fill="#191c19" stroke="#191c19" stroke-width="3"/><rect x="120" y="120" width="100" height="100" fill="#fff" stroke="#191c19" stroke-width="2"/><polygon points="139.0,156.5 151.8,165.8 146.9,180.9 131.1,180.9 126.2,165.8" fill="#191c19" stroke="#191c19" stroke-width="3"/><polygon points="170.0,156.5 182.8,165.8 177.9,180.9 162.1,180.9 157.2,165.8" fill="#191c19" stroke="#191c19" stroke-width="3"/><polygon points="201.0,156.5 213.8,165.8 208.9,180.9 193.1,180.9 188.2,165.8" fill="#191c19" stroke="#191c19" stroke-width="3"/><rect x="230" y="120" width="100" height="100" fill="#fff" stroke="#191c19" stroke-width="2"/><polygon points="280.0,144.0 304.7,162.0 295.3,191.0 264.7,191.0 255.3,162.0" fill="#191c19" stroke="#191c19" stroke-width="3"/><rect x="10" y="230" width="100" height="100" fill="#fff" stroke="#191c19" stroke-width="2"/><polygon points="60.0,254.0 86.0,280.0 60.0,306.0 34.0,280.0" fill="#9aa09b" stroke="#191c19" stroke-width="3"/><rect x="120" y="230" width="100" height="100" fill="#fff" stroke="#191c19" stroke-width="2"/><polygon points="147.0,261.0 166.0,280.0 147.0,299.0 128.0,280.0" fill="#9aa09b" stroke="#191c19" stroke-width="3"/><polygon points="193.0,261.0 212.0,280.0 193.0,299.0 174.0,280.0" fill="#9aa09b" stroke="#191c19" stroke-width="3"/><rect x="230" y="230" width="100" height="100" fill="#fff" stroke="#191c19" stroke-width="2"/><text x="280" y="296" font-size="46" font-family="sans-serif" font-weight="700" text-anchor="middle" fill="#191c19">?</text><line x1="10" y1="346" x2="330" y2="346" stroke="#b9bfb6" stroke-width="1.5"/><rect x="10" y="366" width="100" height="100" fill="#fff" stroke="#191c19" stroke-width="2"/><polygon points="60.0,390.0 86.0,416.0 60.0,442.0 34.0,416.0" fill="#9aa09b" stroke="#191c19" stroke-width="3"/><text x="60" y="487" font-size="17" font-family="sans-serif" font-weight="700" text-anchor="middle" fill="#191c19">A</text><rect x="120" y="366" width="100" height="100" fill="#fff" stroke="#191c19" stroke-width="2"/><polygon points="139.0,402.5 152.5,416.0 139.0,429.5 125.5,416.0" fill="#191c19" stroke="#191c19" stroke-width="3"/><polygon points="170.0,402.5 183.5,416.0 170.0,429.5 156.5,416.0" fill="#191c19" stroke="#191c19" stroke-width="3"/><polygon points="201.0,402.5 214.5,416.0 201.0,429.5 187.5,416.0" fill="#191c19" stroke="#191c19" stroke-width="3"/><text x="170" y="487" font-size="17" font-family="sans-serif" font-weight="700" text-anchor="middle" fill="#191c19">B</text><rect x="230" y="366" width="100" height="100" fill="#fff" stroke="#191c19" stroke-width="2"/><polygon points="280.0,390.0 304.7,408.0 295.3,437.0 264.7,437.0 255.3,408.0" fill="#191c19" stroke="#191c19" stroke-width="3"/><text x="280" y="487" font-size="17" font-family="sans-serif" font-weight="700" text-anchor="middle" fill="#191c19">C</text><rect x="10" y="494" width="100" height="100" fill="#fff" stroke="#191c19" stroke-width="2"/><polygon points="29.0,530.5 42.5,544.0 29.0,557.5 15.5,544.0" fill="#9aa09b" stroke="#191c19" stroke-width="3"/><polygon points="60.0,530.5 73.5,544.0 60.0,557.5 46.5,544.0" fill="#9aa09b" stroke="#191c19" stroke-width="3"/><polygon points="91.0,530.5 104.5,544.0 91.0,557.5 77.5,544.0" fill="#9aa09b" stroke="#191c19" stroke-width="3"/><text x="60" y="615" font-size="17" font-family="sans-serif" font-weight="700" text-anchor="middle" fill="#191c19">D</text><rect x="120" y="494" width="100" height="100" fill="#fff" stroke="#191c19" stroke-width="2"/><rect x="128.5" y="533.5" width="21.1" height="21.1" fill="#ffffff" stroke="#191c19" stroke-width="3"/><rect x="159.5" y="533.5" width="21.1" height="21.1" fill="#ffffff" stroke="#191c19" stroke-width="3"/><rect x="190.5" y="533.5" width="21.1" height="21.1" fill="#ffffff" stroke="#191c19" stroke-width="3"/><text x="170" y="615" font-size="17" font-family="sans-serif" font-weight="700" text-anchor="middle" fill="#191c19">E</text><rect x="230" y="494" width="100" height="100" fill="#fff" stroke="#191c19" stroke-width="2"/><polygon points="249.0,530.5 261.8,539.8 256.9,554.9 241.1,554.9 236.2,539.8" fill="#9aa09b" stroke="#191c19" stroke-width="3"/><polygon points="280.0,530.5 292.8,539.8 287.9,554.9 272.1,554.9 267.2,539.8" fill="#9aa09b" stroke="#191c19" stroke-width="3"/><polygon points="311.0,530.5 323.8,539.8 318.9,554.9 303.1,554.9 298.2,539.8" fill="#9aa09b" stroke="#191c19" stroke-width="3"/><text x="280" y="615" font-size="17" font-family="sans-serif" font-weight="700" text-anchor="middle" fill="#191c19">F</text></svg>
