<svg xmlns="http://www.w3.org/2000/svg" viewBox="0 0 340 632" width="340" height="632"><rect width="100%" height="100%" fill="#fff"/><rect x="10" y="10" width="100" height="100" fill="#fff" stroke="#191c19" stroke-width="2"/><polygon points="29.0,46.5 42.5,60.0 29.0,73.5 15.5,60.0" fill="#191c19" stroke="#191c19" stroke-width="3"/><polygon points="60.0,46.5 73.5,60.0 60.0,73.5 46.5,60.0" fill="#191c19" stroke="#191c19" stroke-width="3"/><polygon points="91.0,46.5 104.5,60.0 91.0,73.5 77.5,60.0" fill="#191c19" stroke="#191c19" stroke-width="3"/><rect x="120" y="10" width="100" height="100" fill="#fff" stroke="#191c19" stroke-width="2"/><polygon points="147.0,41.0 163.5,69.5 130.5,69.5" fill="#ffffff" stroke="#191c19" stroke-width="3"/><polygon points="193.0,41.0 209.5,69.5 176.5,69.5" fill="#ffffff" stroke="#191c19" stroke-width="3"/><rect x="230" y="10" width="100" height="100" fill="#fff" stroke="#191c19" stroke-width="2"/><circle cx="280" cy="60" r="23.4" fill="#9aa09b" stroke="#191c19" stroke-width="3"/><rect x="10" y="120" width="100" height="100" fill="#fff" stroke="#191c19" stroke-width="2"/><polygon points="29.0,156.5 40.7,176.8 17.3,176.8" fill="#ffffff" stroke="#191c19" stroke-width="3"/><polygon points="60.0,156.5 71.7,176.8 48.3,176.8" fill="#ffffff" stroke="#191c19" stroke-width="3"/><polygon points="91.0,156.5 102.7,176.8 79.3,176.8" fill="#ffffff" stroke="#191c19" stroke-width="3"/><rect x="120" y="120" width="100" height="100" fill="#fff" stroke="#191c19" stroke-width="2"/><circle cx="147" cy="170" r="17.1" fill="#9aa09b" stroke="#191c19" stroke-width="3"/><circle cx="193" cy="170" r="17.1" fill="#9aa09b" stroke="#191c19" stroke-width="3"/><rect x="230" y="120" width="100" height="100" fill="#fff" stroke="#191c19" stroke-width="2"/><polygon points="280.0,144.0 306.0,170.0 280.0,196.0 254.0,170.0" fill="#191c19" stroke="#191c19" stroke-width="3"/><rect x="10" y="230" width="100" height="100" fill="#fff" stroke="#191c19" stroke-width="2"/><circle cx="29" cy="280" r="12.2" fill="#9aa09b" stroke="#191c19" stroke-width="3"/><circle cx="60" cy="280" r="12.2" fill="#9aa09b" stroke="#191c19" stroke-width="3"/><circle cx="91" cy="280" r="12.2" fill="#9aa09b" stroke="#191c19" stroke-width="3"/><rect x="120" y="230" width="100" height="100" fill="#fff" stroke="#191c19" stroke-width="2"/><polygon points="147.0,261.0 166.0,280.0 147.0,299.0 128.0,280.0" fill="#191c19" stroke="#191c19" stroke-width="3"/><polygon points="193.0,261.0 212.0,280.0 193.0,299.0 174.0,280.0" fill="#191c19" stroke="#191c19" stroke-width="3"/><rect x="230" y="230" width="100" height="100" fill="#fff" stroke="#191c19" stroke-width="2"/><text x="280" y="296" font-size="46" font-family="sans-serif" font-weight="700" text-anchor="middle" fill="#191c19">?</text><line x1="10" y1="346" x2="330" y2="346" stroke="#b9bfb6" stroke-width="1.5"/><rect x="10" y="366" width="100" height="100" fill="#fff" stroke="#191c19" stroke-width="2"/><polygon points="60.0,390.0 82.5,429.0 37.5,429.0" fill="#191c19" stroke="#191c19" stroke-width="3"/><text x="60" y="487" font-size="17" font-family="sans-serif" font-weight="700" text-anchor="middle" fill="#191c19">A</text><rect x="120" y="366" width="100" height="100" fill="#fff" stroke="#191c19" stroke-width="2"/><circle cx="147" cy="416" r="17.1" fill="#9aa09b" stroke="#191c19" stroke-width="3"/><circle cx="193" cy="416" r="17.1" fill="#9aa09b" stroke="#191c19" stroke-width="3"/><text x="170" y="487" font-size="17" font-family="sans-serif" font-weight="700" text-anchor="middle" fill="#191c19">B</text><rect x="230" y="366" width="100" height="100" fill="#fff" stroke="#191c19" stroke-width="2"/><circle cx="280" cy="416" r="23.4" fill="#ffffff" stroke="#191c19" stroke-width="3"/><text x="280" y="487" font-size="17" font-family="sans-serif" font-weight="700" text-anchor="middle" fill="#191c19">C</text><rect x="10" y="494" width="100" height="100" fill="#fff" stroke="#191c19" stroke-width="2"/><circle cx="29" cy="544" r="12.2" fill="#ffffff" stroke="#191c19" stroke-width="3"/><circle cx="60" cy="544" r="12.2" fill="#ffffff" stroke="#191c19" stroke-width="3"/><circle cx="91" cy="544" r="12.2" fill="#ffffff" stroke="#191c19" stroke-width="3"/><text x="60" y="615" font-size="17" font-family="sans-serif" font-weight="700" text-anchor="middle" fill="#191c19">D</text><rect x="120" y="494" width="100" height="100" fill="#fff" stroke="#191c19" stroke-width="2"/><circle cx="139" cy="544" r="12.2" fill="#9aa09b" stroke="#191c19" stroke-width="3"/><circle cx="170" cy="544" r="12.2" fill="#9aa09b" stroke="#191c19" stroke-width="3"/><circle cx="201" cy="544" r="12.2" fill="#9aa09b" stroke="#191c19" stroke-width="3"/><text x="170" y="615" font-size="17" font-family="sans-serif" font-weight="700" text-anchor="middle" fill="#191c19">E</text><rect x="230" y="494" width="100" height="100" fill="#fff" stroke="#191c19" stroke-width="2"/><polygon points="280.0,518.0 302.5,557.0 257.5,557.0" fill="#ffffff" stroke="#191c19" stroke-width="3"/><text x="280" y="615" font-size="17" font-family="sans-serif" font-weight="700" text-anchor="middle" fill="#191c19">F</text></svg>
