<svg xmlns="http://www.w3.org/2000/svg" viewBox="0 0 340 632" width="340" height="632"><rect width="100%" height="100%" fill="#fff"/><rect x="10" y="10" width="100" height="100" fill="#fff" stroke="#191c19" stroke-width="2"/><polygon points="29.0,46.5 42.5,60.0 29.0,73.5 15.5,60.0" fill="#ffffff" stroke="#191c19" stroke-width="3"/><polygon points="60.0,46.5 73.5,60.0 60.0,73.5 46.5,60.0" fill="#ffffff" stroke="#191c19" stroke-width="3"/><polygon points="91.0,46.5 104.5,60.0 91.0,73.5 77.5,60.0" fill="#ffffff" stroke="#191c19" stroke-width="3"/><rect x="120" y="10" width="100" height="100" fill="#fff" stroke="#191c19" stroke-width="2"/><circle cx="147" cy="60" r="17.1" fill="#ffffff" stroke="#191c19" stroke-width="3"/><circle cx="193" cy="60" r="17.1" fill="#ffffff" stroke="#191c19" stroke-width="3"/><rect x="230" y="10" width="100" height="100" fill="#fff" stroke="#191c19" stroke-width="2"/><rect x="259.7" y="39.7" width="40.6" height="40.6" fill="#ffffff" stroke="#191c19" stroke-width="3"/><rect x="10" y="120" width="100" height="100" fill="#fff" stroke="#191c19" stroke-width="2"/><rect x="39.7" y="149.7" width="40.6" height="40.6" fill="#191c19" stroke="#191c19" stroke-width="3"/><rect x="120" y="120" width="100" height="100" fill="#fff" stroke="#191c19" stroke-width="2"/><polygon points="139.0,156.5 152.5,170.0 139.0,183.5 125.5,170.0" fill="#191c19" stroke="#191c19" stroke-width="3"/><polygon points="170.0,156.5 183.5,170.0 170.0,183.5 156.5,170.0" fill="#191c19" stroke="#191c19" stroke-width="3"/><polygon points="201.0,156.5 214.5,170.0 201.0,183.5 187.5,170.0" fill="#191c19" stroke="#191c19" stroke-width="3"/><rect x="230" y="120" width="100" height="100" fill="#fff" stroke="#191c19" stroke-width="2"/><circle cx="257" cy="170" r="17.1" fill="#191c19" stroke="#191c19" stroke-width="3"/><circle cx="303" cy="170" r="17.1" fill="#191c19" stroke="#191c19" stroke-width="3"/><rect x="10" y="230" width="100" height="100" fill="#fff" stroke="#191c19" stroke-width="2"/><circle cx="37" cy="280" r="17.1" fill="#9aa09b" stroke="#191c19" stroke-width="3"/><circle cx="83" cy="280" r="17.1" fill="#9aa09b" stroke="#191c19" stroke-width="3"/><rect x="120" y="230" width="100" height="100" fill="#fff" stroke="#191c19" stroke-width="2"/><rect x="149.7" y="259.7" width="40.6" height="40.6" fill="#9aa09b" stroke="#191c19" stroke-width="3"/><rect x="230" y="230" width="100" height="100" fill="#fff" stroke="#191c19" stroke-width="2"/><text x="280" y="296" font-size="46" font-family="sans-serif" font-weight="700" text-anchor="middle" fill="#191c19">?</text><line x1="10" y1="346" x2="330" y2="346" stroke="#b9bfb6" stroke-width="1.5"/><rect x="10" y="366" width="100" height="100" fill="#fff" stroke="#191c19" stroke-width="2"/><polygon points="60.0,390.0 86.0,416.0 60.0,442.0 34.0,416.0" fill="#9aa09b" stroke="#191c19" stroke-width="3"/><text x="60" y="487" font-size="17" font-family="sans-serif" font-weight="700" text-anchor="middle" fill="#191c19">A</text><rect x="120" y="366" width="100" height="100" fill="#fff" stroke="#191c19" stroke-width="2"/><polygon points="139.0,402.5 152.5,416.0 139.0,429.5 125.5,416.0" fill="#9aa09b" stroke="#191c19" stroke-width="3"/><polygon points="170.0,402.5 183.5,416.0 170.0,429.5 156.5,416.0" fill="#9aa09b" stroke="#191c19" stroke-width="3"/><polygon points="201.0,402.5 214.5,416.0 201.0,429.5 187.5,416.0" fill="#9aa09b" stroke="#191c19" stroke-width="3"/><text x="170" y="487" font-size="17" font-family="sans-serif" font-weight="700" text-anchor="middle" fill="#191c19">B</text><rect x="230" y="366" width="100" height="100" fill="#fff" stroke="#191c19" stroke-width="2"/><circle cx="249" cy="416" r="12.2" fill="#9aa09b" stroke="#191c19" stroke-width="3"/><circle cx="280" cy="416" r="12.2" fill="#9aa09b" stroke="#191c19" stroke-width="3"/><circle cx="311" cy="416" r="12.2" fill="#9aa09b" stroke="#191c19" stroke-width="3"/><text x="280" y="487" font-size="17" font-family="sans-serif" font-weight="700" text-anchor="middle" fill="#191c19">C</text><rect x="10" y="494" width="100" height="100" fill="#fff" stroke="#191c19" stroke-width="2"/><rect x="39.7" y="523.7" width="40.6" height="40.6" fill="#9aa09b" stroke="#191c19" stroke-width="3"/><text x="60" y="615" font-size="17" font-family="sans-serif" font-weight="700" text-anchor="middle" fill="#191c19">D</text><rect x="120" y="494" width="100" height="100" fill="#fff" stroke="#191c19" stroke-width="2"/><polygon points="139.0,530.5 151.8,539.8 146.9,554.9 131.1,554.9 126.2,539.8" fill="#ffffff" stroke="#191c19" stroke-width="3"/><polygon points="170.0,530.5 182.8,539.8 177.9,554.9 162.1,554.9 157.2,539.8" fill="#ffffff" stroke="#191c19" stroke-width="3"/><polygon points="201.0,530.5 213.8,539.8 208.9,554.9 193.1,554.9 188.2,539.8" fill="#ffffff" stroke="#191c19" stroke-width="3"/><text x="170" y="615" font-size="17" font-family="sans-serif" font-weight="700" text-anchor="middle" fill="#191c19">E</text><rect x="230" y="494" width="100" height="100" fill="#fff" stroke="#191c19" stroke-width="2"/><polygon points="249.0,530.5 262.5,544.0 249.0,557.5 235.5,544.0" fill="#191c19" stroke="#191c19" stroke-width="3"/><polygon points="280.0,530.5 293.5,544.0 280.0,557.5 266.5,544.0" fill="#191c19" stroke="#191c19" stroke-width="3"/><polygon points="311.0,530.5 324.5,544.0 311.0,557.5 297.5,544.0" fill="#191c19" stroke="#191c19" stroke-width="3"/><text x="280" y="615" font-size="17" font-family="sans-serif" font-weight="700" text-anchor="middle" fill="#191c19">F</text></svg>
