<svg xmlns="http://www.w3.org/2000/svg" viewBox="0 0 340 632" width="340" height="632"><rect width="100%" height="100%" fill="#fff"/><rect x="10" y="10" width="100" height="100" fill="#fff" stroke="#191c19" stroke-width="2"/><polygon points="37.0,41.0 56.0,60.0 37.0,79.0 18.0,60.0" fill="#ffffff" stroke="#191c19" stroke-width="3"/><polygon points="83.0,41.0 102.0,60.0 83.0,79.0 64.0,60.0" fill="#ffffff" stroke="#191c19" stroke-width="3"/><rect x="120" y="10" width="100" height="100" fill="#fff" stroke="#191c19" stroke-width="2"/><polygon points="147.0,41.0 165.1,54.1 158.2,75.4 135.8,75.4 128.9,54.1" fill="#9aa09b" stroke="#191c19" stroke-width="3"/><polygon points="193.0,41.0 211.1,54.1 204.2,75.4 181.8,75.4 174.9,54.1" fill="#9aa09b" stroke="#191c19" stroke-width="3"/><rect x="230" y="10" width="100" height="100" fill="#fff" stroke="#191c19" stroke-width="2"/><polygon points="257.0,41.0 273.5,69.5 240.5,69.5" fill="#191c19" stroke="#191c19" stroke-width="3"/><polygon points="303.0,41.0 319.5,69.5 286.5,69.5" fill="#191c19" stroke="#191c19" stroke-width="3"/><rect x="10" y="120" width="100" height="100" fill="#fff" stroke="#191c19" stroke-width="2"/><polygon points="60.0,144.0 84.7,162.0 75.3,191.0 44.7,191.0 35.3,162.0" fill="#191c19" stroke="#191c19" stroke-width="3"/><rect x="120" y="120" width="100" height="100" fill="#fff" stroke="#191c19" stroke-width="2"/><polygon points="170.0,144.0 192.5,183.0 147.5,183.0" fill="#ffffff" stroke="#191c19" stroke-width="3"/><rect x="230" y="120" width="100" height="100" fill="#fff" stroke="#191c19" stroke-width="2"/><polygon points="280.0,144.0 306.0,170.0 280.0,196.0 254.0,170.0" fill="#9aa09b" stroke="#191c19" stroke-width="3"/><rect x="10" y="230" width="100" height="100" fill="#fff" stroke="#191c19" stroke-width="2"/><polygon points="29.0,266.5 40.7,286.8 17.3,286.8" fill="#9aa09b" stroke="#191c19" stroke-width="3"/><polygon points="60.0,266.5 71.7,286.8 48.3,286.8" fill="#9aa09b" stroke="#191c19" stroke-width="3"/><polygon points="91.0,266.5 102.7,286.8 79.3,286.8" fill="#9aa09b" stroke="#191c19" stroke-width="3"/><rect x="120" y="230" width="100" height="100" fill="#fff" stroke="#191c19" stroke-width="2"/><polygon points="139.0,266.5 152.5,280.0 139.0,293.5 125.5,280.0" fill="#191c19" stroke="#191c19" stroke-width="3"/><polygon points="170.0,266.5 183.5,280.0 170.0,293.5 156.5,280.0" fill="#191c19" stroke="#191c19" stroke-width="3"/><polygon points="201.0,266.5 214.5,280.0 201.0,293.5 187.5,280.0" fill="#191c19" stroke="#191c19" stroke-width="3"/><rect x="230" y="230" width="100" height="100" fill="#fff" stroke="#191c19" stroke-width="2"/><text x="280" y="296" font-size="46" font-family="sans-serif" font-weight="700" text-anchor="middle" fill="#191c19">?</text><line x1="10" y1="346" x2="330" y2="346" stroke="#b9bfb6" stroke-width="1.5"/><rect x="10" y="366" width="100" height="100" fill="#fff" stroke="#191c19" stroke-width="2"/><polygon points="60.0,390.0 84.7,408.0 75.3,437.0 44.7,437.0 35.3,408.0" fill="#9aa09b" stroke="#191c19" stroke-width="3"/><text x="60" y="487" font-size="17" font-family="sans-serif" font-weight="700" text-anchor="middle" fill="#191c19">A</text><rect x="120" y="366" width="100" height="100" fill="#fff" stroke="#191c19" stroke-width="2"/><polygon points="147.0,397.0 165.1,410.1 158.2,431.4 135.8,431.4 128.9,410.1" fill="#9aa09b" stroke="#191c19" stroke-width="3"/><polygon points="193.0,397.0 211.1,410.1 204.2,431.4 181.8,431.4 174.9,410.1" fill="#9aa09b" stroke="#191c19" stroke-width="3"/><text x="170" y="487" font-size="17" font-family="sans-serif" font-weight="700" text-anchor="middle" fill="#191c19">B</text><rect x="230" y="366" width="100" height="100" fill="#fff" stroke="#191c19" stroke-width="2"/><circle cx="249" cy="416" r="12.2" fill="#ffffff" stroke="#191c19" stroke-width="3"/><circle cx="280" cy="416" r="12.2" fill="#ffffff" stroke="#191c19" stroke-width="3"/><circle cx="311" cy="416" r="12.2" fill="#ffffff" stroke="#191c19" stroke-width="3"/><text x="280" y="487" font-size="17" font-family="sans-serif" font-weight="700" text-anchor="middle" fill="#191c19">C</text><rect x="10" y="494" width="100" height="100" fill="#fff" stroke="#191c19" stroke-width="2"/><polygon points="29.0,530.5 42.5,544.0 29.0,557.5 15.5,544.0" fill="#ffffff" stroke="#191c19" stroke-width="3"/><polygon points="60.0,530.5 73.5,544.0 60.0,557.5 46.5,544.0" fill="#ffffff" stroke="#191c19" stroke-width="3"/><polygon points="91.0,530.5 104.5,544.0 91.0,557.5 77.5,544.0" fill="#ffffff" stroke="#191c19" stroke-width="3"/><text x="60" y="615" font-size="17" font-family="sans-serif" font-weight="700" text-anchor="middle" fill="#191c19">D</text><rect x="120" y="494" width="100" height="100" fill="#fff" stroke="#191c19" stroke-width="2"/><polygon points="139.0,530.5 151.8,539.8 146.9,554.9 131.1,554.9 126.2,539.8" fill="#ffffff" stroke="#191c19" stroke-width="3"/><polygon points="170.0,530.5 182.8,539.8 177.9,554.9 162.1,554.9 157.2,539.8" fill="#ffffff" stroke="#191c19" stroke-width="3"/><polygon points="201.0,530.5 213.8,539.8 208.9,554.9 193.1,554.9 188.2,539.8" fill="#ffffff" stroke="#191c19" stroke-width="3"/><text x="170" y="615" font-size="17" font-family="sans-serif" font-weight="700" text-anchor="middle" fill="#191c19">E</text><rect x="230" y="494" width="100" height="100" fill="#fff" stroke="#191c19" stroke-width="2"/><rect x="238.5" y="533.5" width="21.1" height="21.1" fill="#ffffff" stroke="#191c19" stroke-width="3"/><rect x="269.5" y="533.5" width="21.1" height="21.1" fill="#ffffff" stroke="#191c19" stroke-width="3"/><rect x="300.5" y="533.5" width="21.1" height="21.1" fill="#ffffff" stroke="#191c19" stroke-width="3"/><text x="280" y="615" font-size="17" font-family="sans-serif" font-weight="700" text-anchor="middle" fill="#191c19">F</text></svg>
